<svg id="Capa_1" enable-background="new 0 0 512 512" height="512" viewBox="0 0 512 512" width="512"
  xmlns="http://www.w3.org/2000/svg"
  xmlns:xlink="http://www.w3.org/1999/xlink">
  <linearGradient id="SVGID_1_" gradientUnits="userSpaceOnUse" x1="256" x2="256" y1="512" y2="0">
    <stop offset="0" stop-color="#EFF6FF" />
    <stop offset=".9973" stop-color="#BFDBFE" />
  </linearGradient>
  <linearGradient id="SVGID_2_" gradientUnits="userSpaceOnUse" x1="256" x2="256" y1="407" y2="105">
    <stop offset="0" stop-color="#60A5FA" />
    <stop offset="1" stop-color="#2563EB" />
  </linearGradient>
  <g>
    <g>
      <circle cx="256" cy="256" fill="url(#SVGID_1_)" r="256" />
    </g>
    <g>
      <g>
        <path
          d="m174.35 174.35c10.432-10.432 10.401-27.289 0-37.689-10.079-10.071-27.636-10.036-37.681 0-10.39 10.39-10.438 27.242-.009 37.689 10.391 10.39 27.249 10.441 37.69 0zm163.3 163.3c-10.432 10.432-10.401 27.298 0 37.681 10.432 10.432 27.292 10.397 37.681.009 10.399-10.399 10.432-27.248.009-37.689-10.063-10.054-27.628-10.072-37.69-.001zm-81.65-161.591c-10.177 0-24.489 27.519-26.291 71.059h52.583c-1.803-43.54-16.115-71.059-26.292-71.059zm-97.256 71.059h53.026c1.811-44.569 17.178-88.823 44.23-88.823-50.877-.001-92.747 39.1-97.256 88.823zm194.512 0c-4.508-49.723-46.379-88.823-97.256-88.823 27.052 0 42.419 44.255 44.23 88.823zm-97.256 88.823c10.177 0 24.489-27.519 26.291-71.059h-52.583c1.803 43.54 16.115 71.059 26.292 71.059zm-44.23-71.059h-53.026c4.508 49.723 46.379 88.824 97.256 88.824-27.052 0-42.419-44.255-44.23-88.824zm88.46 0c-1.811 44.569-17.178 88.824-44.23 88.824 50.877 0 92.747-39.101 97.256-88.824zm5.733 114.673c-15.873 6.419-32.684 9.68-49.963 9.68-73.47 0-133.235-59.765-133.235-133.235 0-21.265 5.113-41.598 14.518-60.09-6.817-3.079-10.594-6.291-14.648-10.785-11.575 21.663-17.635 45.75-17.635 70.875 0 83.263 67.737 151 151 151 19.578 0 38.635-3.695 56.625-10.982 4.546-1.839 6.74-7.017 4.901-11.563-1.839-4.57-7.035-6.765-11.563-4.9zm-49.963-274.555c-19.578 0-38.635 3.695-56.625 10.982-4.545 1.839-6.739 7.017-4.901 11.563 1.83 4.545 6.991 6.722 11.562 4.901 15.874-6.419 32.685-9.68 49.964-9.68 73.47 0 133.235 59.765 133.235 133.235 0 21.317-5.131 41.703-14.58 60.23 7.257 3.173 10.973 6.479 14.713 10.641 11.573-21.663 17.632-45.748 17.632-70.872 0-83.263-67.737-151-151-151z"
          fill="url(#SVGID_2_)" />
      </g>
    </g>
  </g>
</svg>